<?xml version="1.0" encoding="UTF-8" standalone="no"?>
<svg
   xmlns:dc="http://purl.org/dc/elements/1.1/"
   xmlns:cc="http://creativecommons.org/ns#"
   xmlns:rdf="http://www.w3.org/1999/02/22-rdf-syntax-ns#"
   xmlns:svg="http://www.w3.org/2000/svg"
   xmlns="http://www.w3.org/2000/svg"
   viewBox="0 0 1042.0267 140.77333"
   height="140.77333"
   width="1042.0267"
   xml:space="preserve"
   id="svg2"
   version="1.1"><metadata
     id="metadata8"><rdf:RDF><cc:Work
         rdf:about=""><dc:format>image/svg+xml</dc:format><dc:type
           rdf:resource="http://purl.org/dc/dcmitype/StillImage" /></cc:Work></rdf:RDF></metadata><defs
     id="defs6"><clipPath
       id="clipPath20"
       clipPathUnits="userSpaceOnUse"><path
         id="path18"
         d="M 0,0 H 7815 V 1055.76 H 0 Z" /></clipPath></defs><g
     transform="matrix(1.3333333,0,0,-1.3333333,0,140.77333)"
     id="g10"><g
       transform="scale(0.1)"
       id="g12"><g
         id="g14"><g
           clip-path="url(#clipPath20)"
           id="g16"><path
             id="path22"
             style="fill:#ffffff;fill-opacity:1;fill-rule:nonzero;stroke:none"
             d="M 1274.93,11.6797 V 596.59 h 358.28 v -94.981 h -245.8 V 355.777 h 194.17 V 260.801 H 1387.41 V 11.6797 h -112.48" /><path
             id="path24"
             style="fill:#ffffff;fill-opacity:1;fill-rule:nonzero;stroke:none"
             d="m 1845.09,309.949 c 122.53,-12.48 175.85,33.352 175.85,101.668 0,62.481 -56.65,104.981 -175.85,86.633 z m 188.34,-64.961 150,-233.3083 H 2046.79 L 1923.45,213.309 c -25.03,-2.508 -50,-3.332 -78.36,-0.821 V 11.6797 H 1732.61 V 591.605 c 276.66,47.489 404.14,-37.519 404.14,-181.656 0,-76.66 -48.3,-137.48 -103.32,-164.961" /><path
             id="path26"
             style="fill:#ffffff;fill-opacity:1;fill-rule:nonzero;stroke:none"
             d="m 2272.84,11.6797 h 112.492 v 584.91 H 2272.84 Z" /><path
             id="path28"
             style="fill:#ffffff;fill-opacity:1;fill-rule:nonzero;stroke:none"
             d="M 2874.89,11.6797 H 2521.62 V 596.59 h 112.42 V 106.656 h 240.85 V 11.6797" /><path
             id="path30"
             style="fill:#ffffff;fill-opacity:1;fill-rule:nonzero;stroke:none"
             d="m 3139.2,199.977 h 160.86 l -79.99,188.3 z M 2930.11,11.6797 3200.87,602.426 h 39.15 L 3509.16,11.6797 H 3385 l -44.16,94.9763 h -241.6 l -44.16,-94.9763 h -124.97" /><path
             id="path32"
             style="fill:#ffffff;fill-opacity:1;fill-rule:nonzero;stroke:none"
             d="M 4071.11,596.59 V 10.832 L 4045.26,3.33203 3692.81,359.137 V 11.6797 H 3582.02 V 597.406 l 25.78,7.492 351.64,-355.769 V 596.59 h 111.67" /><path
             id="path34"
             style="fill:#ffffff;fill-opacity:1;fill-rule:nonzero;stroke:none"
             d="m 4518.86,466.598 c -35.01,19.172 -90.03,40 -131.69,40 -55.84,0 -96.61,-25 -96.61,-64.149 0,-40.84 47.49,-64.988 111.6,-89.148 135.83,-53.324 174.97,-115.84 172.53,-188.305 C 4572.18,60.0156 4478.01,-0.808594 4363.02,0.0117188 4278.01,0.859375 4204.74,36.6797 4167.22,66.6563 l 42.47,86.6717 c 32.5,-24.18 89.15,-53.32 145.87,-53.32 51.62,0 106.65,19.98 106.65,63.301 0,48.339 -66.69,70.007 -136.64,100.808 -90.84,41.692 -148.38,92.512 -148.38,178.332 0,83.313 70.83,165.813 200.01,165.813 68.32,0 146.61,-31.688 177.48,-47.492 l -35.82,-94.172" /><path
             id="path36"
             style="fill:#ffffff;fill-opacity:1;fill-rule:nonzero;stroke:none"
             d="M 4892.47,11.6797 V 596.59 h 358.29 V 501.609 H 5004.95 V 355.777 h 194.17 V 260.801 H 5004.95 V 11.6797 h -112.48" /><path
             id="path38"
             style="fill:#ffffff;fill-opacity:1;fill-rule:nonzero;stroke:none"
             d="m 5358.49,11.6797 h 112.488 v 584.91 H 5358.49 Z" /><path
             id="path40"
             style="fill:#ffffff;fill-opacity:1;fill-rule:nonzero;stroke:none"
             d="M 6101.86,596.59 V 10.832 L 6076.01,3.33203 5723.56,359.137 V 11.6797 H 5612.71 V 597.406 l 25.84,7.492 351.64,-355.769 V 596.59 h 111.67" /><path
             id="path42"
             style="fill:#ffffff;fill-opacity:1;fill-rule:nonzero;stroke:none"
             d="m 6367.13,199.977 h 160.86 L 6448,388.277 Z M 6158.03,11.6797 6428.8,602.426 h 39.14 L 6737.08,11.6797 h -124.16 l -44.16,94.9763 H 6327.17 L 6283,11.6797 h -124.97" /><path
             id="path44"
             style="fill:#ffffff;fill-opacity:1;fill-rule:nonzero;stroke:none"
             d="M 7299.04,596.59 V 10.832 L 7273.19,3.33203 6920.74,359.137 V 11.6797 H 6809.88 V 597.406 l 25.85,7.492 351.64,-355.769 V 596.59 h 111.67" /><path
             id="path46"
             style="fill:#ffffff;fill-opacity:1;fill-rule:nonzero;stroke:none"
             d="m 7759.29,466.598 c -35.01,19.172 -90.03,40 -131.69,40 -55.84,0 -96.61,-25 -96.61,-64.149 0,-40.84 47.49,-64.988 111.6,-89.148 135.83,-53.324 174.97,-115.84 172.53,-188.305 C 7812.61,60.0156 7718.44,-0.808594 7603.45,0.0117188 7518.44,0.859375 7445.17,36.6797 7407.65,66.6563 l 42.47,86.6717 c 32.5,-24.18 89.22,-53.32 145.87,-53.32 51.62,0 106.65,19.98 106.65,63.301 0,48.339 -66.69,70.007 -136.71,100.808 -90.77,41.692 -148.31,92.512 -148.31,178.332 0,83.313 70.83,165.813 200.01,165.813 68.32,0 146.61,-31.688 177.48,-47.492 l -35.82,-94.172" /><path
             id="path48"
             style="fill:#ffffff;fill-opacity:1;fill-rule:nonzero;stroke:none"
             d="m 474.402,7.62109 c -142.441,0 -310.183,0 -452.6286,0 -21.621056,0 -21.621056,0 -21.593712,20.91021 0,2.3203 0.238281,4.6875 -0.027344,6.957 -0.863282,6.9922 1.843746,9.4023 9.757816,10 26.60154,2.0312 74.58594,12.5078 94.24184,29.4414 45.043,38.7813 98.528,38.3473 143.516,-0.7617 44.277,-38.4375 108.617,-39.1094 153.945,-1.5547 50.477,41.7887 99.172,41.5747 149.332,-0.625 43.082,-36.2578 108.571,-35.8789 151.77,0.8906 48.125,40.9651 98.164,41.3091 146.887,0.5664 19.543,-16.3555 67.238,-26.2344 93.312,-28.0039 7.434,-0.5 9.043,-3.0625 8.754,-9.3516 C 950.348,7.62109 925.188,7.62109 894.285,7.62109 H 474.402" /><path
             id="path50"
             style="fill:#ffffff;fill-opacity:1;fill-rule:nonzero;stroke:none"
             d="m 951.781,91.8633 c 0.239,-10.0274 -2.824,-13.9258 -13.543,-10.7422 -2.367,0.6914 -30.136,1.0234 -32.55,1.4844 -27.918,5.3008 -29.684,7.2656 -29.684,33.3865 0,254.223 0.019,109.27 -0.024,363.477 0,38.254 -18.277,64.941 -52.027,76.668 -49.371,17.125 -103.113,-17.824 -103.14,-67.426 -0.122,-249.152 -0.122,-99.152 0.14,-348.293 0.027,-10.625 -3.133,-17.012 -12.484,-23.992 -21.047,-15.746 -40.828,-32.4143 -69.223,-35.4533 -29.758,-3.1797 -55.758,4.3086 -78.598,22.3673 -5.644,4.469 -6.386,9.949 -6.386,16.187 -0.028,25.051 -0.407,50.09 -0.36,75.157 0.621,247.285 0.383,95.421 0.36,342.722 0,16.84 -1.891,33.27 -11.34,48.27 -16.719,26.476 -50.418,40.66 -82.973,34.609 -31.793,-5.906 -57.504,-32.222 -60.832,-62.672 -1,-9.207 -1.625,-18.508 -1.625,-27.765 -0.094,-242.164 -0.238,-85.203 0.168,-327.387 0.024,-26.906 0.41,-53.789 0.07,-80.703 -0.117,-10.57 -4.281,-17.348 -12.82,-23.3244 -34.347,-24.1094 -83.43,-24.4414 -117.945,-0.1641 -10.281,7.2465 -19.66,15.6445 -29.781,23.0855 -4.231,3.086 -4.422,6.934 -4.571,11.122 -0.57,15.285 -1.597,30.586 -1.597,45.902 -0.094,235.652 -0.051,72.184 -0.071,307.84 -0.023,36.715 -26.265,67.308 -62.336,72.855 -40.496,6.246 -77.4059,-14.754 -89.316,-50.988 -2.9414,-8.93 -3.586,-18.203 -3.586,-27.512 0,-228.722 -0.3828,-58.273 0.4532,-286.965 0.1211,-28.777 -1.9649,-57.546 -0.1914,-86.277 C 76.7109,95.3984 71.6875,89.1563 60.2773,86.043 58.8398,85.6602 57.3867,85.3789 55.9727,84.9492 25.2109,75.9063 1.39063,77.3125 1.36328,103.746 c -0.12109,300.219 0.48047,189.465 0,489.68 0,13.945 4.16016,19.781 18.60942,24.156 140.2423,42.602 305.5233,97.832 445.5003,141.242 7.558,2.371 14.16,2.039 21.453,-0.238 140.937,-43.602 307.172,-99.098 448.328,-142.152 11.691,-3.567 16.551,-8.493 16.527,-19.493 -0.386,-136.203 -0.957,-463.75 0,-505.0777" /><path
             id="path52"
             style="fill:#ffffff;fill-opacity:1;fill-rule:nonzero;stroke:none"
             d="m 111.797,686.063 c 0,26.89 0,52.867 0,78.843 0,49.727 0.305,99.453 -0.266,149.16 -0.121,10.571 3.395,13.559 14.324,13.489 57.575,-0.41 115.172,-0.383 172.75,-0.024 10.575,0.051 14.879,-2.418 14.758,-13.25 -0.527,-52.051 -0.355,-104.097 -0.097,-156.148 0.047,-7.367 -1.578,-11.77 -9.903,-14.301 -60.726,-18.445 -121.297,-37.316 -181.929,-56.023 -2.68,-0.813 -5.594,-1.028 -9.637,-1.746 m 63.859,133.593 c 0,-11.148 0.239,-22.297 -0.093,-33.418 -0.215,-6.504 2.558,-9.398 9.425,-9.375 18.848,0.075 37.696,-0.023 56.543,0.047 5.215,0.028 10.094,0.836 10.024,7.438 -0.215,22.726 1.148,45.617 -1.004,68.168 -1.942,20.191 -21.125,32.437 -42.41,30.406 -19.305,-1.82 -32.336,-16.551 -32.508,-36.789 -0.07,-8.824 0,-17.653 0.023,-26.477" /><path
             id="path54"
             style="fill:#ffffff;fill-opacity:1;fill-rule:nonzero;stroke:none"
             d="m 722.867,957.117 c 35.113,0 70.231,0.262 105.321,-0.168 10.476,-0.121 14.972,2.223 14.566,13.203 -0.887,24.133 -0.574,51.928 -0.094,76.088 0,7.34 -2.226,7.63 -27.101,7.75 -24.016,0.1 -24.711,-1.67 -24.711,-10.02 v -30.81 c 0,-6.8 -2.633,-6.34 -21.481,-6.34 -19.183,0 -21.453,1.13 -21.453,6.63 0,7.39 -0.117,15.66 0.098,28.82 0.215,12.72 -0.742,12.41 -24.903,12.56 -28.058,0.14 -24.832,0.14 -24.898,-20.72 -0.074,-6.72 0,-19.13 0,-22.03 0,-7.1 -5.668,-5.26 -22.582,-5.26 -16.289,0 -19.879,-0.43 -19.879,5.5 0,9.31 0.051,23.39 0,32.68 -0.043,8.01 -0.191,10.76 -24.324,10.76 -27.176,0 -27.649,-0.33 -27.649,-10.52 0,-15.33 0.711,-57.939 -0.238,-73.197 -0.742,-11.41 2.891,-15.43 15.496,-15.164 34.586,0.715 69.227,0.238 103.832,0.238" /><path
             id="path56"
             style="fill:#ffffff;fill-opacity:1;fill-rule:nonzero;stroke:none"
             d="m 213.422,957.117 c 35.109,0 70.223,0.262 105.316,-0.168 10.473,-0.121 14.973,2.223 14.567,13.203 -0.883,24.133 -0.578,51.928 -0.098,76.088 0,7.34 -2.223,7.63 -27.102,7.75 -24.011,0.1 -24.707,-1.67 -24.707,-10.02 v -30.81 c 0,-6.8 -8.175,-6.34 -21.476,-6.34 -14.641,0 -21.457,1.13 -21.457,6.63 0,7.39 -0.121,15.66 0.094,28.82 0.214,12.72 -0.743,12.41 -24.899,12.56 -28.058,0.14 -24.828,0.14 -24.902,-20.72 -0.07,-6.72 0,-19.13 0,-22.03 0,-7.1 -8.301,-5.26 -22.578,-5.26 -13.133,0 -19.879,-0.43 -19.879,5.5 0,9.31 0.051,23.39 0,32.68 -0.047,8.01 -0.192,10.76 -24.324,10.76 -27.1762,0 -27.6528,-0.33 -27.6528,-10.52 0,-15.33 0.7188,-57.939 -0.2383,-73.197 -0.7421,-11.41 2.8946,-15.43 15.5041,-15.164 34.582,0.715 69.215,0.238 103.832,0.238" /><path
             id="path58"
             style="fill:#ffffff;fill-opacity:1;fill-rule:nonzero;stroke:none"
             d="m 823.469,686.063 v 78.843 c 0,49.727 -0.336,99.453 0.258,149.16 0.125,10.571 -3.368,13.559 -14.278,13.489 -57.406,-0.41 -114.812,-0.383 -172.219,-0.024 -10.523,0.051 -14.832,-2.418 -14.73,-13.25 0.547,-52.051 0.355,-104.097 0.113,-156.148 -0.047,-7.367 1.582,-11.77 9.879,-14.301 60.52,-18.445 120.914,-37.316 181.36,-56.023 2.679,-0.813 5.597,-1.028 9.617,-1.746 m -63.653,133.593 c 0,-11.148 -0.261,-22.297 0.098,-33.418 0.191,-6.504 -2.582,-9.398 -9.422,-9.375 -18.781,0.075 -37.578,-0.023 -56.359,0.047 -5.215,0.028 -10.067,0.836 -9.996,7.438 0.215,22.726 -1.145,45.617 1.004,68.168 1.914,20.191 21.047,32.437 42.265,30.406 19.231,-1.82 32.246,-16.551 32.41,-36.789 0.075,-8.824 0,-17.653 0,-26.477" /></g></g></g></g></svg>